<svg width="1254" height="1254" viewBox="0 0 1254 1254" fill="none" xmlns="http://www.w3.org/2000/svg">
<path fill-rule="evenodd" clip-rule="evenodd" d="M885.999 290.092C873.624 294.492 849.999 302.987 833.499 308.97C816.999 314.952 792.699 323.71 779.499 328.431C766.299 333.152 754.089 337.654 752.365 338.436C747.363 340.704 742.505 345.526 735.33 355.344C731.649 360.38 719.354 377.1 708.006 392.5C696.658 407.9 674.818 437.6 659.472 458.5C617.008 516.333 553.438 602.141 514.097 654.728L478.766 701.956L475.033 698.728C472.98 696.953 468.42 692.989 464.9 689.92C443.972 671.678 419.033 650.087 416.172 647.735C412.667 644.853 407.519 644.116 404.011 645.993C401.158 647.521 381.156 670.456 379.98 673.55C377.799 679.285 379.6 681.415 406.775 705.242C456.331 748.692 467.343 758.508 467.642 759.5C467.807 760.05 459.293 770.217 448.721 782.092C438.149 793.968 419.699 814.712 407.721 828.19L385.943 852.696L373.721 853.327L361.499 853.957L352.269 863.729C341.967 874.636 339.842 878.81 342.142 883.617C344.179 887.876 394.701 932.685 398.999 934.046C404.318 935.73 406.738 934.24 416.968 922.98L426.211 912.807L425.531 900.153L424.851 887.5L463.175 844.927C484.253 821.511 502.96 800.685 504.745 798.646L507.991 794.939L550.014 831.72C573.126 851.949 593.527 869.095 595.349 869.822C598.095 870.917 599.183 870.917 601.705 869.822C605.233 868.29 626.717 845.703 628.159 842.01C630.598 835.767 629.509 834.456 601.789 810.286C587.416 797.754 572.583 784.891 568.828 781.702C565.072 778.512 561.999 775.735 561.999 775.528C561.999 775.066 563.628 773.351 582.981 753.434C591.496 744.67 605.896 729.848 614.981 720.495C624.066 711.143 639.833 694.943 650.019 684.495C660.205 674.048 676.616 657.175 686.488 647C696.36 636.825 711.432 621.3 719.983 612.5C728.533 603.7 749.908 581.65 767.484 563.5C804.254 525.528 828.321 500.823 856.135 472.5C866.937 461.5 876.686 450.682 877.8 448.46C878.914 446.237 882.531 431.168 885.841 414.96C889.149 398.757 896.205 364.35 901.519 338.5C906.833 312.65 911.423 289.363 911.717 286.75C912.189 282.569 912.028 282.006 910.376 282.046C909.344 282.072 898.374 285.693 885.999 290.092ZM754.803 443.544C753.319 444.349 744.759 453.669 735.778 464.254C726.798 474.839 708.381 496.55 694.851 512.5C681.322 528.45 664.711 548.025 657.939 556C651.166 563.975 642.022 574.775 637.619 580C625.817 594.004 608.709 614.188 599.477 625C582.127 645.318 534.218 701.622 528.999 707.828C525.974 711.425 520.469 717.997 516.765 722.434L510.031 730.5L514.203 734C516.498 735.925 520.836 739.638 523.843 742.25C526.85 744.862 529.609 747 529.973 747C530.338 747 536.493 740.138 543.65 731.75C550.808 723.362 563.827 708.164 572.582 697.976C581.336 687.789 594.574 672.299 601.999 663.555C609.424 654.812 618.226 644.473 621.56 640.579C627.676 633.436 635.485 624.218 704.651 542.5C725.599 517.75 748.085 491.2 754.621 483.5C774.873 459.64 774.499 460.164 774.497 455.592C774.494 445.831 763.255 438.955 754.803 443.544Z" fill="#E43030"/>
</svg>
