<svg width="1254" height="1254" viewBox="0 0 1254 1254" fill="none" xmlns="http://www.w3.org/2000/svg">
<path d="M674.757 428C577.419 428 498.511 461.522 498.513 502.873V572.016C425.261 581.871 403.999 610.752 404 643.394L404.022 751.493C404.02 792.844 482.928 826.366 580.265 826.365C677.603 826.366 756.51 792.844 756.509 751.493V684.238C829.76 674.382 851.001 645.502 851 612.859V502.873C851.002 461.522 772.094 428 674.757 428ZM508.062 645.586C532.122 676.003 599.319 696.5 674.974 696.5C683.075 696.505 684.05 696.273 692.076 695.805V717.16C692.076 737.871 642.017 754.661 580.267 754.661C518.516 754.661 468.457 737.871 468.457 717.16V672.019C468.457 661.708 487.982 652.366 508.062 645.586Z" fill="#E2BA3D"/>
</svg>
