<svg width="1254" height="1254" viewBox="0 0 1254 1254" fill="none" xmlns="http://www.w3.org/2000/svg">
<path fill-rule="evenodd" clip-rule="evenodd" d="M577.223 316.557C575.027 318.094 575 318.42 575 342.902C575 365.646 574.849 367.826 573.171 369.345C571.616 370.752 568.725 371 553.871 371C541.616 371 536.042 370.642 535.2 369.8C534.369 368.969 534 363.79 534 352.955C534 339.068 533.794 337.124 532.171 335.655C530.558 334.195 526.928 334 501.394 334C476.811 334 472.11 334.235 470.223 335.557L468 337.113V387.946C468 434.93 468.132 438.93 469.75 440.776C472.012 443.358 512.947 476.366 515.742 477.862C518.921 479.564 598.061 479.458 600.135 477.75C600.97 477.063 606.99 469.188 613.512 460.25C620.034 451.313 625.727 444 626.162 444C626.598 444 632.027 450.632 638.227 458.738C644.427 466.843 650.717 474.733 652.205 476.269L654.91 479.064L696.205 478.782L737.5 478.5L759 460.627C770.825 450.797 781.288 441.86 782.25 440.766C783.868 438.929 784 434.939 784 388.044C784 340.164 783.897 337.217 782.171 335.655C780.557 334.194 776.888 334 750.826 334C723.501 334 721.187 334.136 719.655 335.829C718.265 337.365 718 340.136 718 353.129C718 363.829 717.63 368.97 716.8 369.8C715.954 370.646 710.208 371 697.335 371C680.301 371 679.001 370.87 678.035 369.066C677.402 367.883 677 357.605 677 342.622C677 318.429 676.971 318.093 674.777 316.557C672.843 315.202 666.517 315 626 315C585.483 315 579.157 315.202 577.223 316.557ZM523.172 498.75C521.379 500.28 520.742 503.693 518.105 525.899C516.051 543.193 515.396 551.871 516.052 553.097C516.581 554.086 522.637 557.879 529.507 561.524C539.935 567.055 542 568.53 542 570.442C542 573.175 534.861 634.804 528.556 686.5C520.781 750.254 514.82 793.457 513.638 794.625C513.012 795.243 507.325 798.418 501 801.679C485.966 809.429 484.783 810.262 482.152 814.944C480.48 817.918 479.647 821.849 478.81 830.703C478.196 837.191 477.258 843.063 476.725 843.75C476.06 844.607 472.5 845 465.401 845C455.75 845 454.95 845.153 453.627 847.25C452.641 848.814 451.672 857.362 450.445 875.305C448.899 897.94 448.861 901.29 450.143 902.572C451.414 903.843 474.547 904.032 627.552 904.022C794.042 904.011 803.569 903.916 804.791 902.258C805.645 901.099 805.894 898.81 805.528 895.503C805.223 892.751 804.274 881.051 803.418 869.503C802.222 853.359 801.496 848.1 800.276 846.753C798.972 845.311 796.963 845 788.967 845C782.384 845 778.926 844.596 778.256 843.75C777.712 843.063 776.685 837.325 775.974 831C773.922 812.741 773.207 811.803 753.5 801.522C746.35 797.792 740.325 794.587 740.112 794.399C739.898 794.211 738.886 787.407 737.862 779.278C732.792 739.023 727.839 700.425 726.534 691C725.735 685.225 723.929 670.15 722.521 657.5C721.113 644.85 718.843 625.275 717.476 614C712.603 573.816 712.141 569.581 712.55 568.92C712.777 568.551 718.321 565.264 724.868 561.615C731.415 557.965 737.318 554.322 737.984 553.519C738.763 552.581 738.989 550.352 738.618 547.28C733.846 507.843 732.712 500.36 731.264 498.75C729.784 497.105 723.555 497 627.456 497C531.537 497 525.095 497.108 523.172 498.75Z" fill="#4C67EB"/>
</svg>
